<?xml version="1.0" encoding="utf-8"?>
<!-- Generator: Adobe Illustrator 24.0.0, SVG Export Plug-In . SVG Version: 6.00 Build 0)  -->
<svg version="1.1" id="图层_1" xmlns="http://www.w3.org/2000/svg" xmlns:xlink="http://www.w3.org/1999/xlink" x="0px" y="0px"
	 viewBox="0 0 1920 1080" style="enable-background:new 0 0 1920 1080;" xml:space="preserve">
<style type="text/css">
	.st0{fill:#757575;}
	.st1{fill:none;stroke:#757575;stroke-linecap:round;stroke-miterlimit:10;}
</style>
<g>
	<path class="st0" d="M446.82,306.87l46.71,56.23l0.5,0.6l0.7-0.33l15.67-7.39l303.83,0.6l20.21,6.54l0.15,0.05l0.16,0l152.67,0.3
		l60.15,4.19l0.5,0.04l0.33-0.38l45.67-53.37l9.72,3.42l-2.65,45.96l-0.06,1.1l1.1-0.04l73.51-2.68l29.63,30.52l0.3,0.31l0.43-0.01
		l88.93-1.2l0.36,0l0.27-0.23l13.49-11.43l321.88,4.78l12.41,18.18v197.48l-19.26,18.41l-10.1-12.62l-0.13-0.16l-0.18-0.1
		l-120.29-65.23l-59.52-46.36l-0.3-0.23l-0.38,0.02l-57.38,3.25l-3.92-9.23l-0.25-0.6l-0.65-0.01l-17.7-0.29l-10.5-18.08l-0.21-0.35
		l-0.39-0.11l-11.57-3.18l-17.16-31.66l-0.3-0.55l-0.63,0.03l-52.66,2.38l-9.9-6.99l-0.28-0.19l-0.34,0.01l-59.58,2.1l-1.03,0.04
		l0.07,1.03l2.65,39.1l-37.95,15.3l-0.4,0.16l-0.16,0.41l-7.49,19.46l-0.17,0.44l0.23,0.41l48.21,87.13l0.01,0.02l0.01,0.02
		l17.75,28.4c-1.66,7.53-4.37,19.38-4.89,20.56c-0.57,0.86-0.54,1.45,14.88,17.71c5.6,5.91,11.3,11.81,13.84,14.43l-87.08,12.36
		l5.06-12.77l0.16-0.4l-0.18-0.39l-29.64-63.48l-0.14-0.29l-0.28-0.16l-14.57-8.16l-7.4-37.27l-0.11-0.53l-0.51-0.2l-24.85-9.88
		l-0.2-0.08l-0.22,0.01l-100.01,4.79l-0.83,0.04l-0.11,0.83l-10.78,79.94l-0.04,0.32l0.16,0.29l12.89,23.72l-42,62.85l-85.41-40.8
		l17.48-33.21l0.11-0.21l0-0.24l1.2-95.8l2.99-106.89l0.02-0.87l-0.86-0.15l-24.55-4.19l-0.16-0.03l-0.16,0.02l-55.91,8.22
		l-82.44-1.94l-190.78,1.94l-8.01-7.44l-15.96-22.82l-0.3-0.43l-0.52,0l-61.1,0.15l-122.44,2.38l-7.26-18.79l4.25-14.07l122.31,1.79
		l0.99,0.01l0.02-0.99l1.78-85.25H446.82 M447.29,305.87h-18.26l-1.8,86.23l-123.06-1.8l-4.57,15.12l7.64,19.76l123.14-2.4
		l61.08-0.15l16.02,22.91l8.38,7.78l191.18-1.95l82.49,1.95l55.99-8.23l24.55,4.19l-2.99,106.89l-1.2,95.81l-17.97,34.13
		l87.13,41.62l42.82-64.08l-13.17-24.25l10.78-79.94l100.01-4.79l24.85,9.88l7.49,37.73l14.97,8.38l29.64,63.48l-5.69,14.37
		l90.72-12.88c0,0-30.54-31.44-29.94-32.34c0.6-0.9,5.09-21.26,5.09-21.26l-17.97-28.74l-48.21-87.13l7.49-19.46l38.62-15.57
		l-2.69-39.82l59.58-2.1l10.18,7.19l53-2.4l17.37,32.04l11.98,3.29l10.78,18.56l18.26,0.3l4.19,9.88l58.09-3.29l59.58,46.41
		l120.37,65.27l10.78,13.47l20.36-19.46V402.29l-12.88-18.86l-322.77-4.79l-13.77,11.68l-88.93,1.2l-29.94-30.84l-73.96,2.69
		l2.69-46.71l-11.08-3.89l-46.11,53.9l-60.18-4.19l-152.7-0.3l-20.36-6.59l-304.21-0.6l-15.87,7.49L447.29,305.87L447.29,305.87z"/>
</g>
<path class="st1" d="M304.17,390.31l9.88,16.76c0,0-6.25,19.59-6.81,18.12c-0.57-1.46,71-33.8,71-33.8l52.08,30.28l-3.09-29.57
	l62.6,29.29l-52.07-46.01l9.53-69.51l92.69,113.59l20.11-24.52c0,0,53.45,55.93,53.73,54.55c0.28-1.38,9.64-93.13,9.64-93.13
	s83.76,94,83.76,93.15s0-76.9,0-76.9s52.35,59.24,51.8,58.41s-18.46-75.61-18.46-75.61l51.25,18.58l-2.2,75.52l31.13-43.84
	l-7.71-50.12l31.68,33.86v54l49.59-79.9l37.47,59.24l56.79-60.23l-1.68,67.12l-20.11,5.51l-3.86,74.94l11.85,47.11l-60.89-6.34
	l-14.05-55.38l-32.71,59.77l67.94,172.48l30.03-87.62L865.88,652l19.16,51.86l34.06-132.59l11.02-103.05l86.51,16.26l24.8,18.46
	l31.41-1.38l74.01,3.54l-46.52,59.46l74.05-7.88l-20.81,117.64l82.77,0.17l-92.97-32.96l69.24-19.48l-90.14-11.56"/>
<path class="st1" d="M1059.81,386.39l-44.52,79.07l26.13,37.5l57.92-103.94l76.73-38.34l-30.88,37.68c0,0,45.95,75.2,46.59,73.11
	c0.64-2.09-1.94-40.13-1.94-40.13l16.17-39.82l53.6,44.91l48.7-46.71l4.29,44.32l69.79-54.3l49.83,113.64l3.99-98.34l13.95,32.99
	l114.95-32.32l43.85,16.61l22.51-28.88c0,0,12.17,17.83,12.06,17.67s-31.67,204.67-31.67,204.67l31.67-6.09l-62.81-102.99
	l-89.25,43.46l101.21-66.72"/>
<path class="st1" d="M304.17,390.31l50.44,20.6l72.62-18.8l66.02-29.91l-64.22-56.32l41.71,95.8l69.24,17.8l-5.89-64.44l26.01,39.92
	l63.37-38.57l10.04,39.58c0,0-118.14,59.63-117.89,58.51c0.25-1.12-6.39-99.03-6.39-99.03l-1.89,89.91"/>
<path class="st1" d="M672.21,374.62l35.01-1.99l33.34-17.2c0,0,48.73,96.91,48.89,95.51c0.16-1.41-31.2-20.73-31.2-20.73
	l-51.03,19.31l105.8-93.95l59.41,43.19l59.85,23.47l-62.21,27.06c0,0,91.81,61.03,91.59,60.37c-0.22-0.66-31.55-41.43-31.55-41.43
	l57.33-105.77l26.57,102.11l71.92,10.78l-44.51,27.6l18.38-116.57l9.19-21.45l-21.37,1.72l51.72,32.35l2.77-35.65l43.56,34.39
	c0,0,26.91,80.24,26.25,80.24c-0.66,0-185.06-48.33-185.06-48.33l-92.58-66.13l-49.59,25.9"/>
<polyline class="st1" points="1071.44,501.64 1100.32,564.57 1085.93,475.35 1190.1,430.72 1176.08,360.67 "/>
<polyline class="st1" points="1206.02,391.51 1312.61,434.03 1308.32,389.71 1308.72,378.63 1370.53,488.21 1436.22,395.02 
	1382.4,379.73 "/>
<polyline class="st1" points="1432.24,493.36 1565.13,395.69 1592.7,473.43 1643.55,599.68 1492.8,539.51 1450.18,428.01 
	1608.98,412.3 1643.34,402.34 "/>
<polyline class="st1" points="941.52,685.59 847.91,686.14 974.75,557.23 919.09,571.28 867.1,555.28 961.66,509.67 "/>
<polyline class="st1" points="430.32,421.67 510.17,354.98 560.09,394.95 633.5,394.92 706.36,448.71 672.21,374.62 623.46,356.37 
	515.57,453.07 493.25,362.2 468.83,402.84 "/>
<polyline class="st1" points="613.77,449.52 672.21,374.62 791.18,395.23 844.7,389.44 820.73,405.69 844.7,443.44 930.12,468.24 
	932.28,422.23 995.67,466.81 986.87,429.66 1014.01,464.58 962.93,509.67 899.81,495.51 974.75,557.23 954.73,670.31 941.52,685.59 
	867.07,556.19 "/>
<polyline class="st1" points="1093.73,312.76 1069,364.94 1099.35,399.01 1190.1,430.72 1308.32,389.71 1450.18,428.01 
	1375.19,498.1 1380.76,379.7 1565.13,395.69 1631.49,383.42 1592.7,473.43 1580.74,496.68 1610.54,605.76 1546.26,504.05 
	1490.2,474.19 1432.24,493.36 1312.61,434.03 "/>
<path class="st1" d="M1142.05,642.12l-9.18-9.82c0,0,40.28-75.47,40-75.44c-0.29,0.03-65.27,44.41-65.27,44.41l38.83-95.07
	l-73.61,48.63l12.03-78.8l-121.93,33.64l18.8,33.06l-6.98,14.5l110.95-27.13l-172.15,19.57l5.54,21.61l22.43,114.31l-6.48,42.17"/>
<polyline class="st1" points="307.24,425.19 354.6,410.91 430.32,421.67 470.74,401.67 "/>
<polyline class="st1" points="539.98,419.47 614.87,450.53 707.22,372.63 "/>
<path class="st1" d="M758.49,429.19c0.02,0.08,62.25-23.5,62.25-23.5l49.34,43.6l29.74,46.22l66.95-60.34"/>
<polyline class="st1" points="865.89,651.08 919.09,571.28 964.69,639.43 913.55,549.67 867.95,554.87 "/>
<path class="st1" d="M981.3,541.97c0.43,0.76,92.75,12.79,92.75,12.79l71.64-157.01l-47.13,0.76c0,0-111.67-35.62-110.85-35.06
	c0.82,0.56,98.23,111.9,98.23,111.9l60.91,29.76"/>
<polyline class="st1" points="1146.73,688.53 1207.51,643.32 1141.27,641.27 1195.78,595.13 1101.43,564.45 "/>
<polyline class="st1" points="1436.22,395.02 1565.13,395.69 1492.8,539.51 "/>
<polyline class="st1" points="1608.98,412.3 1591.99,473.9 1450.18,428.01 "/>
<polyline class="st1" points="427.23,392.11 437.76,375.39 493.45,361.45 "/>
<polygon class="st1" points="1016.63,484.49 1014.01,464.58 995.67,466.81 "/>
<polyline class="st1" points="1102.12,363.36 1069,364.94 1104.81,316.65 "/>
<path class="st1" d="M995.67,466.81l-32.75,42.86L995.67,466.81z"/>
</svg>
